<svg width="632" height="289" viewBox="0 0 632 289" fill="none" xmlns="http://www.w3.org/2000/svg">
<path d="M97.9255 94.1321H113.744C113.744 95.6038 113.858 97.8113 114.085 100.755C114.313 103.698 114.427 105.906 114.427 107.377C114.427 128.736 103.862 140.396 82.7331 142.358C75.0705 142.811 67.4649 143.038 59.9161 143.038H39.8872C29.7589 142.283 21.8877 139.792 16.2735 135.566C10.6973 131.302 6.80908 125.868 4.60893 119.264C2.40878 112.623 1.13801 104.66 0.796605 95.3774C0.455203 86.0943 0.189668 78.1132 0 71.434V48.9057C0 39.434 1.02421 31.3962 3.07262 24.7925C5.15897 18.1509 8.87646 12.8113 14.2251 8.77359C19.6117 4.69811 27.0656 2.16981 36.5869 1.18868C42.5046 0.396226 51.7604 0 64.3543 0C74.4067 0 82.3159 0.566038 88.0818 1.69811C93.8856 2.83019 98.4566 4.92453 101.795 7.98113C105.133 11.0377 107.58 15.4528 109.135 21.2264C110.69 26.9623 111.771 34.8868 112.378 45H96.503C96.503 36.8868 95.953 30.7358 94.8529 26.5472C93.7908 22.3208 91.4389 19.1698 87.7973 17.0943C84.1936 14.9811 78.6363 13.9245 71.1255 13.9245C62.1731 13.9245 52.1397 14.3019 41.0252 15.0566C34.1971 15.6226 29.0382 17.1887 25.5483 19.7547C22.0963 22.283 19.8013 25.7736 18.6633 30.2264C17.5632 34.6415 17.0132 40.6415 17.0132 48.2264V80.9434C17.0132 100.302 18.8909 113.358 22.6463 120.113C26.0224 126.151 35.4869 129.17 51.0396 129.17C52.1776 129.17 54.245 129.245 57.2418 129.396C60.2385 129.547 62.6094 129.623 64.3543 129.623C74.0653 129.623 82.0882 128.302 88.4232 125.66C94.7581 122.981 98.0773 117.811 98.3807 110.151C98.3807 108.302 98.3049 105.585 98.1531 102C98.0014 98.4151 97.9255 95.7925 97.9255 94.1321Z" fill="#1C1E22"/>
<path d="M204.557 42.9057V142.358H190.787V129.17C186.614 135.057 181.967 138.925 176.846 140.774C171.725 142.585 164.878 143.491 156.305 143.491C144.47 143.491 135.745 140.698 130.131 135.113C124.555 129.528 121.767 120.736 121.767 108.736V42.9057H137.187V108.736C137.187 114.736 137.813 119.34 139.064 122.547C140.316 125.717 142.497 127.962 145.608 129.283C148.757 130.566 153.403 131.208 159.549 131.208C167.477 131.208 173.546 130.283 177.757 128.434C182.005 126.547 184.964 123.491 186.633 119.264C188.302 115.038 189.137 109.057 189.137 101.321V42.9057H204.557Z" fill="#1C1E22"/>
<path d="M295.142 68.6038H280.234C280.234 62.2264 278.205 58.0189 274.146 55.9811C270.087 53.9057 264.492 52.8679 257.36 52.8679H249.906C242.851 52.8679 237.502 53.9057 233.86 55.9811C230.257 58.0189 228.455 62.0755 228.455 68.1509C228.455 72.2642 228.853 75.3962 229.65 77.5472C230.446 79.6604 231.888 81.2264 233.974 82.2453C236.061 83.2264 239.209 83.8679 243.42 84.1698C250.248 84.3208 256.962 84.4717 263.562 84.6226C270.163 84.7736 275.967 85.566 280.974 87C285.981 88.434 290.059 91.1887 293.208 95.2642C296.356 99.3396 297.93 105.226 297.93 112.925C297.93 122.057 296.242 128.83 292.866 133.245C289.528 137.623 284.938 140.434 279.096 141.679C273.292 142.887 265.516 143.491 255.767 143.491C246.891 143.491 239.475 142.962 233.519 141.906C227.601 140.849 222.632 138.358 218.611 134.434C214.628 130.472 212.637 124.453 212.637 116.377C212.637 113.774 212.713 111.925 212.864 110.83H227.772C227.772 116.755 228.512 121.226 229.991 124.245C231.509 127.226 233.917 129.264 237.218 130.358C240.518 131.415 245.297 131.943 251.556 131.943H255.027C266.863 131.943 274.639 130.623 278.357 127.981C281.315 125.906 282.795 121.113 282.795 113.604C282.795 107.075 281.258 102.943 278.186 101.208C275.113 99.434 270.353 98.5472 263.904 98.5472H257.816C257.588 98.5472 257.133 98.4717 256.45 98.3208C255.767 98.1698 255.293 98.0943 255.027 98.0943C245.203 97.4906 238.716 97.0377 235.567 96.7358C232.419 96.3962 228.986 95.4151 225.269 93.7925C221.551 92.1321 218.63 89.4906 216.506 85.8679C214.382 82.2076 213.319 77.2264 213.319 70.9245C213.319 59.1132 215.728 51.5472 220.546 48.2264C227.26 43.434 238.052 41.0377 252.922 41.0377C261.154 41.0377 268.266 41.6792 274.26 42.9623C280.253 44.2075 285.223 46.8679 289.168 50.9434C293.151 54.9811 295.142 60.8679 295.142 68.6038Z" fill="#1C1E22"/>
<path d="M372.811 42.9057V54.9623H334.347V115.698C334.347 121.698 335.257 125.792 337.078 127.981C338.899 130.132 342.654 131.208 348.344 131.208C354.565 131.208 358.529 129.83 360.236 127.075C361.943 124.321 362.797 119.83 362.797 113.604V107.377H376.737C376.737 119.453 374.898 128.491 371.218 134.491C367.576 140.491 359.952 143.491 348.344 143.491C340.947 143.491 335.143 142.642 330.932 140.943C326.76 139.245 323.763 136.396 321.942 132.396C320.121 128.396 319.211 122.83 319.211 115.698V54.9623H306.124V42.9057H319.211V19.0189H334.347V42.9057H372.811Z" fill="black"/>
<path d="M385.841 89.717C385.841 77.6792 386.885 68.2264 388.971 61.3585C391.095 54.4906 395.192 49.3962 401.261 46.0755C407.331 42.717 416.321 41.0377 428.232 41.0377C441.054 41.0377 450.708 42.434 457.194 45.2264C463.719 47.9811 468.176 52.717 470.566 59.434C472.956 66.1509 474.151 75.9434 474.151 88.8113C474.151 102.321 473.449 112.698 472.045 119.943C470.68 127.189 467 133.019 461.007 137.434C455.051 141.811 445.606 144 432.67 144C420.266 144 410.764 142.83 404.163 140.491C397.601 138.113 392.897 133.736 390.052 127.358C387.245 120.981 385.841 111.604 385.841 99.2264V89.717ZM400.977 98.0943C400.977 113.377 402.987 123.189 407.008 127.528C409.853 130.321 415.221 131.717 423.111 131.717H430.337C436.71 131.717 441.774 131.208 445.53 130.189C449.285 129.17 452.206 127.132 454.292 124.075C456.417 121.019 457.669 116.453 458.048 110.377C458.238 105.094 458.332 97.5094 458.332 87.6226C458.332 78 457.915 70.9623 457.081 66.5094C456.284 62.0566 454.141 58.7547 450.651 56.6038C447.199 54.4151 441.509 53.3208 433.581 53.3208H430.337C421.385 53.3208 414.898 54.1509 410.878 55.8113C406.894 57.4717 404.239 60.5283 402.911 64.9811C401.622 69.434 400.977 76.6038 400.977 86.4906V98.0943Z" fill="#1C1E22"/>
<path d="M483.027 42.9057H497.48V57.7359C502.98 46.9057 513.772 41.4906 529.856 41.4906C547.761 41.4906 558.477 46.9057 562.005 57.7359C568.567 46.6038 579.758 41.0377 595.576 41.0377C604.377 41.0377 611.394 42.2264 616.629 44.6038C621.902 46.9811 625.733 50.7547 628.123 55.9245C630.513 61.0566 631.708 67.9245 631.708 76.5283V142.358H616.572V75.3396C616.572 66.9245 614.96 61.1509 611.736 58.0189C608.549 54.8868 602.632 53.3208 593.983 53.3208C588.217 53.3208 582.811 54.1887 577.766 55.9245C572.721 57.6604 569.193 60.6604 567.183 64.9245C565.628 68.6981 564.85 74.1887 564.85 81.3962V142.358H549.43V76.5283C549.202 70.1509 548.501 65.4151 547.325 62.3208C546.187 59.1887 544.043 56.9811 540.895 55.6981C537.784 54.4151 532.872 53.7736 526.158 53.7736C515.612 53.7736 508.196 56.3585 503.91 61.5283C499.623 66.6981 497.48 74.6226 497.48 85.3019V142.358H483.027V42.9057Z" fill="#1C1E22"/>
<path d="M339.65 198.106L314.633 287.174H295.219L283.268 237.698L279.629 222.593L277.956 215.04L276.177 207.488H275.885L274.105 215.04L272.326 222.593L268.687 237.698L256.63 287.174H236.844L212.65 198.106H226.381L238.996 247.397L242.926 262.873L244.785 270.611L246.644 278.349H247.016L248.795 270.611L250.655 262.873L254.399 247.503L266.642 198.133H285.685L297.822 247.609L301.566 262.979L303.346 270.611L305.125 278.349H305.417L307.382 270.611L309.242 262.873L313.172 247.397L325.681 198.106H339.677H339.65Z" fill="#FF6F39"/>
<path d="M364.774 160V174.628H351.708V160H364.774ZM364.774 198.107V287.174H351.708V198.107H364.774Z" fill="#FF6F39"/>
<path d="M388.942 198.107H402.009L400.707 208.362L400.999 208.654C406.178 200.28 414.703 196.066 426.575 196.066C443.014 196.066 451.221 204.52 451.221 221.401L451.114 227.549H438.234L438.526 225.323C438.712 222.964 438.818 221.374 438.818 220.579C438.818 211.437 433.825 206.878 423.892 206.878C409.339 206.878 402.035 215.862 402.035 233.803V287.174H388.969V198.107H388.942Z" fill="#FF6F39"/>
<path d="M525.902 260.25H539.26L539.367 263.509C539.367 272.758 536.552 279.25 530.921 282.934C525.291 286.617 515.411 288.472 501.283 288.472C484.843 288.472 474.061 285.478 468.935 279.489C463.809 273.5 461.233 260.912 461.233 241.7C461.233 223.944 463.809 212.019 468.988 205.924C474.167 199.829 484.259 196.782 499.344 196.782C515.783 196.782 526.539 199.432 531.638 204.705C536.737 209.979 539.287 221.109 539.287 238.069V245.065H475.043C475.043 259.11 476.557 268.041 479.585 271.883C482.612 275.726 489.65 277.66 500.725 277.66C511.8 277.66 518.067 276.733 521.228 274.904C524.388 273.076 525.955 269.101 525.955 263.032V260.25H525.902ZM525.902 234.916L525.796 230.728C525.796 221.109 524.202 214.855 521.042 211.966C517.881 209.078 511.029 207.647 500.512 207.647C489.995 207.647 483.064 209.343 479.93 212.735C476.796 216.127 475.203 223.52 475.203 234.942H525.902V234.916Z" fill="#FF6F39"/>
<path d="M629.08 221.401H616.013C616.013 215.2 614.765 211.331 612.242 209.847C609.719 208.363 603.239 207.621 592.775 207.621C583.055 207.621 576.893 208.416 574.29 210.006C571.688 211.596 570.36 215.385 570.36 221.427C570.36 230.57 574.742 235.34 583.533 235.764L594.076 236.32L607.435 236.983C623.609 237.778 631.709 246.231 631.709 262.317C631.709 272.308 629.027 279.171 623.688 282.908C618.35 286.644 608.524 288.499 594.289 288.499C580.054 288.499 569.59 286.724 564.092 283.199C558.595 279.675 555.833 273.156 555.833 263.722L555.939 258.872H569.483L569.59 263.059C569.59 268.889 571.077 272.785 574.078 274.746C577.079 276.707 582.948 277.687 591.712 277.687C602.468 277.687 609.559 276.654 612.959 274.613C616.358 272.573 618.058 268.28 618.058 261.761C618.058 252.379 613.782 247.689 605.257 247.689C585.392 247.689 572.352 246.019 566.084 242.654C559.816 239.288 556.709 232.345 556.709 221.772C556.709 211.781 559.179 205.103 564.119 201.791C569.059 198.478 578.912 196.809 593.678 196.809C617.341 196.809 629.159 203.911 629.159 218.141V221.401H629.08Z" fill="#FF6F39"/>
</svg>
