<svg width="17" height="24" viewBox="0 0 17 24" fill="none" xmlns="http://www.w3.org/2000/svg">
<path d="M1.0979 8.18359H0.263672V10.4153H1.0979V8.18359Z" fill="white"/>
<path d="M0.57992 6.86162H0.781941C0.935115 6.86162 1.08202 6.80078 1.19033 6.69247C1.29863 6.58416 1.35948 6.43726 1.35948 6.28408V5.76595C1.3598 5.68992 1.34509 5.61456 1.3162 5.54421C1.28732 5.47388 1.24483 5.40992 1.19117 5.35604C1.1375 5.30216 1.07373 5.2594 1.00351 5.23024C0.933281 5.20106 0.857986 5.18604 0.781941 5.18604H0.57992C0.426115 5.18604 0.278611 5.24714 0.169855 5.3559C0.0610988 5.46466 0 5.61216 0 5.76595V6.28408C0.000628661 6.43747 0.0620046 6.58438 0.170692 6.69261C0.279381 6.80085 0.426526 6.86162 0.57992 6.86162Z" fill="white"/>
<path d="M13.3846 5.22637H13.5843C13.738 5.22637 13.8855 5.16527 13.9943 5.05651C14.1031 4.94775 14.1642 4.80025 14.1642 4.64645V4.12833C14.1642 4.05227 14.1492 3.97698 14.12 3.90675C14.0908 3.83654 14.048 3.77275 13.9942 3.71911C13.9403 3.66544 13.8763 3.62294 13.806 3.59407C13.7356 3.56517 13.6603 3.55045 13.5843 3.55079H13.3846C13.3086 3.55045 13.2332 3.56517 13.1629 3.59407C13.0925 3.62294 13.0286 3.66544 12.9747 3.71911C12.9208 3.77275 12.8781 3.83654 12.8489 3.90675C12.8197 3.97698 12.8047 4.05227 12.8047 4.12833V4.64645C12.8047 4.80025 12.8658 4.94775 12.9745 5.05651C13.0833 5.16527 13.2308 5.22637 13.3846 5.22637Z" fill="white"/>
<path d="M15.6103 5.18604H15.4083C15.3322 5.18604 15.2569 5.20106 15.1867 5.23024C15.1165 5.2594 15.0527 5.30216 14.999 5.35604C14.9454 5.40992 14.9029 5.47388 14.874 5.54421C14.8451 5.61456 14.8304 5.68992 14.8307 5.76595V6.0773V14.0631H13.9965C13.8738 13.7229 13.6739 13.4157 13.4124 13.1658C13.151 12.9159 12.8351 12.73 12.4897 12.6228V6.28646V5.76833C12.4897 5.61453 12.4286 5.46703 12.3198 5.35828C12.2111 5.24952 12.0635 5.18841 11.9097 5.18841H11.7101C11.5563 5.18841 11.4088 5.24952 11.3 5.35828C11.1913 5.46703 11.1302 5.61453 11.1302 5.76833V6.02739V13.8848H11.8099C11.9353 13.8758 12.0612 13.8926 12.1798 13.9344C12.2984 13.9762 12.4071 14.0419 12.4991 14.1276C12.5912 14.2132 12.6646 14.3169 12.7148 14.4321C12.765 14.5474 12.7909 14.6718 12.7909 14.7975C12.7909 14.9232 12.765 15.0476 12.7148 15.1628C12.6646 15.2781 12.5912 15.3818 12.4991 15.4674C12.4071 15.553 12.2984 15.6188 12.1798 15.6606C12.0612 15.7023 11.9353 15.7192 11.8099 15.7101H11.287C11.2371 15.7101 11.1872 15.7101 11.1373 15.7101C10.9081 15.4458 10.6461 15.2118 10.3577 15.0138C9.87239 14.6865 9.47472 14.2451 9.19957 13.7284C8.92444 13.2117 8.78024 12.6354 8.7796 12.05V7.62217V7.40114C8.7796 7.32511 8.76458 7.24981 8.73542 7.17958C8.70623 7.10935 8.66348 7.04558 8.6096 6.99191C8.55571 6.93825 8.49178 6.89578 8.42143 6.86687C8.35108 6.838 8.27574 6.82329 8.19968 6.8236H8.00004C7.92398 6.82329 7.84864 6.838 7.77829 6.86687C7.70794 6.89578 7.64401 6.93825 7.59013 6.99191C7.53624 7.04558 7.49349 7.10935 7.4643 7.17958C7.43514 7.24981 7.42012 7.32511 7.42012 7.40114V7.91926V7.97155V12.0571C7.41948 12.6425 7.27528 13.2188 7.00015 13.7355C6.725 14.2523 6.32733 14.6936 5.84198 15.0209C5.55359 15.219 5.29162 15.453 5.06241 15.7173C5.01012 15.7173 4.95546 15.7173 4.90317 15.7173H4.3898C4.2644 15.7263 4.13849 15.7095 4.01991 15.6677C3.90134 15.6259 3.79265 15.5602 3.7006 15.4745C3.60855 15.3889 3.53516 15.2852 3.48496 15.17C3.43476 15.0547 3.40886 14.9303 3.40886 14.8046C3.40886 14.6789 3.43476 14.5545 3.48496 14.4393C3.53516 14.324 3.60855 14.2203 3.7006 14.1347C3.79265 14.0491 3.90134 13.9833 4.01991 13.9416C4.13849 13.8998 4.2644 13.8829 4.3898 13.892H5.06954V9.56633V9.0482C5.0708 8.97125 5.05673 8.89483 5.02816 8.82337C4.99957 8.7519 4.95705 8.68685 4.90308 8.63199C4.8491 8.57711 4.78474 8.53355 4.71377 8.50382C4.64278 8.47408 4.56658 8.45878 4.48962 8.45878H4.28998C4.13618 8.45878 3.98866 8.51988 3.87992 8.62864C3.77116 8.7374 3.71006 8.8849 3.71006 9.0387V9.55682V12.6204C3.36463 12.7276 3.04876 12.9135 2.7873 13.1634C2.52583 13.4133 2.32591 13.7205 2.20322 14.0607H1.35948V12.8272V12.3091C1.35949 12.1557 1.29871 12.0085 1.19047 11.8998C1.08223 11.7912 0.935332 11.7298 0.781941 11.7291H0.57992C0.426307 11.7298 0.279167 11.7911 0.170546 11.8997C0.061925 12.0083 0.000625717 12.1555 0 12.3091V12.8272V20.7488H4.19253C4.35857 21.3922 4.69333 21.9797 5.16223 22.4505C5.62681 22.9226 6.21907 23.2489 6.86634 23.3893C7.24994 23.4623 7.61078 23.6252 7.91923 23.8647L8.09035 24.0002L8.27336 23.8552C8.58081 23.6238 8.93813 23.4675 9.31674 23.3988C9.96787 23.2608 10.5644 22.9353 11.0327 22.4624C11.5024 21.9921 11.8373 21.4045 12.0024 20.7607H16.1855V6.28646V5.76833C16.1855 5.61453 16.1244 5.46703 16.0156 5.35828C15.9069 5.24952 15.7593 5.18841 15.6055 5.18841L15.6103 5.18604ZM4.07132 18.3554V19.4059H1.35948V15.4226H2.16757C2.30982 15.8841 2.59217 16.29 2.97546 16.5838C3.35873 16.8777 3.82398 17.045 4.30662 17.0625C4.16449 17.478 4.09064 17.9139 4.08796 18.3531L4.07132 18.3554ZM5.44744 18.3531C5.44171 17.9676 5.52041 17.5855 5.67798 17.2336C6.10284 17.4414 6.47402 17.7445 6.76257 18.1192C7.05113 18.494 7.24933 18.9302 7.34169 19.3941H5.44031L5.44744 18.3531ZM7.432 22.0869C6.94078 22.0564 6.47837 21.8447 6.13431 21.4927C5.92074 21.2812 5.75043 21.0301 5.63283 20.7535H7.432V22.0869ZM8.10699 17.6091C7.73152 17.009 7.21189 16.5122 6.5954 16.1641L6.61679 16.1475C7.22872 15.7291 7.73948 15.1794 8.11174 14.5384C8.48401 15.1794 8.99477 15.7291 9.6067 16.1475L9.62571 16.1617C9.00603 16.5091 8.48375 17.0069 8.10699 17.6091ZM10.0916 21.4927C9.74626 21.8442 9.28328 22.0558 8.79149 22.0869V20.7535H10.593C10.4737 21.0292 10.3036 21.2799 10.0916 21.4927ZM10.7642 19.4059H8.82951C8.92304 18.9394 9.12373 18.5008 9.41575 18.1251C9.70778 17.7493 10.0832 17.4466 10.5122 17.2408C10.6772 17.5926 10.7632 17.9763 10.7642 18.3649V19.4059ZM14.8307 19.4059H12.1236V18.3649C12.1222 17.9257 12.0483 17.4896 11.905 17.0744C12.3837 17.0518 12.8439 16.8823 13.2228 16.5888C13.6017 16.2954 13.881 15.8923 14.0226 15.4344H14.8307V19.4059Z" fill="white"/>
<path d="M1.09595 1.6377H0.261719V3.86943H1.09595V1.6377Z" fill="white"/>
<path d="M15.926 1.6377H15.0918V3.86943H15.926V1.6377Z" fill="white"/>
<path d="M4.80688 4.91016H3.97266V7.1419H4.80688V4.91016Z" fill="white"/>
<path d="M8.51196 0H7.67773V2.23174H8.51196V0Z" fill="white"/>
<path d="M2.60531 5.22637H2.80733C2.88338 5.22637 2.95868 5.21135 3.02891 5.18217C3.09912 5.15301 3.16291 5.11025 3.21655 5.05637C3.27022 5.00249 3.31271 4.93853 3.34159 4.8682C3.37049 4.79785 3.38518 4.72249 3.38487 4.64645V4.12833C3.38487 3.97515 3.32403 3.82825 3.21572 3.71994C3.10741 3.61163 2.96051 3.55079 2.80733 3.55079H2.60531C2.52927 3.55045 2.45391 3.56517 2.38356 3.59407C2.31322 3.62294 2.24927 3.66544 2.19539 3.71911C2.14151 3.77275 2.09875 3.83654 2.06958 3.90675C2.04041 3.97698 2.02539 4.05227 2.02539 4.12833V4.64645C2.02539 4.80025 2.08649 4.94775 2.19525 5.05651C2.304 5.16527 2.45151 5.22637 2.60531 5.22637Z" fill="white"/>
<path d="M7.99594 5.36406H8.19558C8.34938 5.36406 8.49688 5.30298 8.60564 5.19422C8.71439 5.08546 8.7755 4.93794 8.7755 4.78414V4.2684C8.7755 4.1146 8.71439 3.9671 8.60564 3.85834C8.49688 3.74958 8.34938 3.68848 8.19558 3.68848H7.99594C7.84214 3.68848 7.69461 3.74958 7.58588 3.85834C7.47712 3.9671 7.41602 4.1146 7.41602 4.2684V4.78414C7.41602 4.93794 7.47712 5.08546 7.58588 5.19422C7.69461 5.30298 7.84214 5.36406 7.99594 5.36406Z" fill="white"/>
</svg>
