<?xml version="1.0" standalone="no"?>
<!DOCTYPE svg PUBLIC "-//W3C//DTD SVG 20010904//EN"
 "http://www.w3.org/TR/2001/REC-SVG-20010904/DTD/svg10.dtd">
<svg version="1.0" xmlns="http://www.w3.org/2000/svg"
 width="1024.000000pt" height="1024.000000pt" viewBox="0 0 1024.000000 1024.000000"
 preserveAspectRatio="xMidYMid meet">

<g transform="translate(0.000000,1024.000000) scale(0.100000,-0.100000)"
fill="#000000" stroke="none">
<path d="M4305 9306 c-355 -65 -552 -157 -633 -294 l-27 -47 -6 -755 c-4 -524
-9 -770 -18 -805 -31 -132 -100 -328 -258 -735 -42 -107 -91 -233 -109 -280
-31 -80 -93 -243 -134 -356 -11 -28 -69 -179 -130 -335 -62 -156 -188 -480
-282 -719 -93 -239 -213 -545 -267 -680 -54 -135 -123 -310 -154 -390 -31 -80
-83 -188 -114 -240 l-58 -95 3 -290 c2 -159 8 -308 13 -330 18 -71 73 -139
157 -193 98 -63 254 -160 407 -252 66 -40 170 -104 230 -142 61 -37 130 -79
155 -93 25 -14 99 -59 165 -100 66 -41 149 -91 185 -111 36 -21 102 -61 148
-91 45 -29 85 -53 87 -53 3 0 47 -26 97 -58 130 -82 334 -207 453 -277 55 -33
102 -62 105 -65 3 -3 73 -46 155 -94 83 -49 186 -112 230 -141 123 -81 255
-158 310 -182 110 -47 335 -71 505 -53 108 11 279 54 390 97 150 59 484 227
1075 543 39 20 133 70 210 110 77 40 145 76 150 80 6 4 86 47 178 94 356 184
489 266 555 341 77 87 94 155 88 348 -3 83 -1 125 6 121 6 -4 6 1 -1 13 -7 14
-7 24 2 33 9 10 9 11 0 6 -15 -9 -18 20 -3 29 12 8 13 52 1 59 -4 3 -2 29 6
58 20 77 12 202 -16 256 -12 24 -58 78 -102 120 -134 129 -255 330 -404 677
-26 61 -51 115 -56 120 -4 6 -23 46 -42 90 -19 44 -64 145 -100 225 -35 80
-119 271 -187 425 -67 154 -130 298 -140 320 -26 57 -83 189 -115 265 -25 58
-62 142 -123 280 -50 112 -283 652 -329 763 -9 20 -19 37 -23 37 -6 0 14 -65
34 -112 4 -9 6 -25 3 -35 -3 -14 -7 -11 -18 15 -7 17 -17 32 -21 32 -5 0 -6
11 -2 24 3 13 1 27 -5 31 -6 3 -9 10 -6 15 3 5 1 20 -5 34 -7 19 -17 26 -35
26 -22 0 -24 3 -15 19 14 26 13 41 -3 41 -9 0 -12 11 -11 32 3 37 -5 60 -17
52 -5 -3 -4 7 1 21 13 34 13 35 -5 29 -13 -5 -14 -2 -5 21 13 34 13 35 -5 29
-11 -5 -13 -2 -8 12 5 13 3 15 -8 9 -8 -5 -5 1 5 13 11 12 16 25 13 29 -4 3
-7 1 -7 -5 0 -6 -9 -10 -19 -9 -11 0 -17 5 -15 9 3 5 9 6 14 3 4 -3 11 2 14
11 9 23 8 27 -9 20 -8 -3 -15 -1 -15 4 0 6 6 10 13 10 8 0 8 3 1 8 -15 10 -11
68 4 64 7 -1 12 5 12 13 0 17 -11 19 -28 5 -9 -7 -9 -7 -2 2 14 17 12 31 -2
22 -10 -5 -10 -4 -1 6 8 8 9 19 3 30 -12 22 -1 62 14 53 6 -4 3 5 -7 20 -13
21 -15 32 -7 46 13 25 13 34 -1 25 -7 -4 -7 1 1 16 7 12 8 20 3 17 -5 -3 -9
10 -9 28 1 19 5 35 10 35 4 0 2 10 -7 23 -13 21 -13 25 6 51 11 15 21 42 22
59 1 18 0 26 -2 20 -3 -7 -10 -13 -18 -13 -7 0 -20 -10 -29 -22 -22 -29 -9 -2
16 34 26 38 22 45 -9 17 l-28 -24 25 28 c25 29 35 83 17 94 -5 3 1 14 14 25
20 15 21 17 4 12 -11 -4 -29 -14 -40 -23 -20 -16 -20 -15 -2 5 9 11 17 27 17
35 0 8 9 32 20 53 l19 39 -24 -23 c-14 -13 -27 -21 -30 -18 -3 2 4 13 15 23
21 19 28 51 9 40 -17 -11 -6 28 14 46 9 9 17 25 16 35 0 16 -2 16 -9 -3 -5
-13 -14 -23 -20 -23 -6 0 -8 5 -5 10 12 19 14 90 3 90 -6 0 -8 3 -4 8 4 4 13
7 19 7 7 0 13 9 14 20 l3 20 -9 -20 c-9 -18 -10 -18 -10 -2 -1 11 -6 15 -12
11 -8 -4 -8 -1 -1 12 5 11 7 25 5 32 -3 6 0 12 5 12 6 0 13 -6 15 -12 3 -8 6
-6 6 5 1 11 -7 17 -21 17 -22 1 -22 1 -5 15 18 13 18 14 -2 25 -24 13 -28 30
-6 30 8 0 15 5 15 10 0 6 -5 10 -10 10 -7 0 -7 6 0 19 5 11 10 30 10 43 -1 22
-1 22 -15 4 -8 -11 -15 -16 -15 -10 0 5 7 18 15 28 12 16 12 22 2 35 -9 11 -9
13 0 8 15 -9 33 23 32 55 -1 19 -3 18 -9 -7 -6 -25 -8 -27 -15 -12 -4 10 -3
29 3 43 7 13 8 24 3 24 -14 0 -29 -24 -26 -42 2 -10 -2 -15 -10 -12 -8 3 -19
-4 -25 -15 -10 -19 -80 -71 -95 -71 -3 0 20 22 52 48 32 27 67 65 78 85 11 20
25 37 32 37 7 0 13 5 13 11 0 5 -4 7 -10 4 -5 -3 -10 0 -10 7 -1 7 -6 4 -13
-8 -19 -33 -101 -114 -115 -114 -7 0 -11 -4 -8 -8 5 -9 -77 -65 -111 -76 -37
-12 -26 0 30 32 59 34 178 144 197 182 8 17 -6 8 -46 -30 -32 -30 -61 -58 -64
-61 -9 -9 -103 -59 -106 -56 -1 1 32 26 74 54 90 60 124 94 152 148 l20 40 -5
-43 c-2 -25 0 -40 6 -37 14 9 11 92 -6 132 -51 122 -142 178 -580 360 -33 14
-179 77 -324 140 -313 136 -494 205 -628 239 -81 21 -128 26 -268 30 -148 3
-187 1 -300 -20z m525 -214 c180 -75 475 -202 994 -426 169 -72 206 -97 206
-136 0 -40 -28 -64 -145 -120 -208 -100 -345 -132 -505 -119 -107 8 -186 40
-645 259 -60 29 -227 106 -370 172 -392 181 -402 187 -375 238 15 29 49 43
195 84 343 95 354 97 455 92 83 -3 107 -9 190 -44z m-770 -277 c14 -8 21 -14
15 -14 -5 0 -21 6 -35 14 -14 8 -20 14 -15 14 6 0 21 -6 35 -14z m1850 -45 c8
-5 11 -10 5 -10 -5 0 -17 5 -25 10 -8 5 -10 10 -5 10 6 0 17 -5 25 -10z
m-1650 -50 c8 -5 11 -10 5 -10 -5 0 -17 5 -25 10 -8 5 -10 10 -5 10 6 0 17 -5
25 -10z m2030 -244 c0 -2 -8 -10 -17 -17 -16 -13 -17 -12 -4 4 13 16 21 21 21
13z m-226 -315 c-5 -5 -20 -11 -34 -14 -23 -6 -23 -5 3 5 15 7 27 16 27 22 0
5 3 6 7 3 4 -4 2 -11 -3 -16z m116 -11 c-8 -5 -19 -10 -25 -10 -5 0 -3 5 5 10
8 5 20 10 25 10 6 0 3 -5 -5 -10z m-50 -245 c0 -6 -56 -35 -67 -35 -4 1 8 9
27 20 39 22 40 22 40 15z m69 -59 c-2 -2 -15 -9 -29 -15 -24 -11 -24 -11 -6 3
16 13 49 24 35 12z m152 -39 l-24 -22 19 27 c10 14 21 24 23 22 3 -3 -6 -15
-18 -27z m-191 -167 c-8 -5 -22 -9 -30 -9 -10 0 -8 3 5 9 27 12 43 12 25 0z
m-55 -20 c-3 -5 -12 -10 -18 -10 -7 0 -6 4 3 10 19 12 23 12 15 0z m40 -20
c-3 -5 -11 -10 -16 -10 -6 0 -7 5 -4 10 3 6 11 10 16 10 6 0 7 -4 4 -10z m45
-74 c0 -2 -8 -10 -17 -17 -16 -13 -17 -12 -4 4 13 16 21 21 21 13z m214 -83
c4 -10 4 -14 0 -11 -3 4 -15 -3 -26 -15 -19 -22 -19 -22 -2 11 10 17 19 32 20
32 1 0 5 -8 8 -17z m-304 -73 c-8 -5 -22 -9 -30 -9 -10 0 -8 3 5 9 27 12 43
12 25 0z m15 -250 c-3 -5 -14 -10 -23 -10 -15 0 -15 2 -2 10 20 13 33 13 25 0z
m39 -154 c-10 -8 -21 -12 -24 -10 -5 6 21 24 34 24 6 0 1 -6 -10 -14z m26 -10
c0 -2 -7 -7 -16 -10 -8 -3 -12 -2 -9 4 6 10 25 14 25 6z m-35 -46 c-3 -5 -12
-10 -18 -10 -7 0 -6 4 3 10 19 12 23 12 15 0z m130 -120 c-3 -5 -12 -10 -18
-10 -7 0 -6 4 3 10 19 12 23 12 15 0z m135 -24 c0 -2 -8 -10 -17 -17 -16 -13
-17 -12 -4 4 13 16 21 21 21 13z m-460 -366 c-8 -5 -19 -10 -25 -10 -5 0 -3 5
5 10 8 5 20 10 25 10 6 0 3 -5 -5 -10z m30 -60 c-8 -5 -19 -10 -25 -10 -5 0
-3 5 5 10 8 5 20 10 25 10 6 0 3 -5 -5 -10z m623 -85 c4 -8 2 -17 -3 -20 -6
-4 -10 3 -10 14 0 25 6 27 13 6z m-1020 -72 c-7 -2 -19 -2 -25 0 -7 3 -2 5 12
5 14 0 19 -2 13 -5z m51 -17 c-3 -8 -15 -14 -25 -13 -19 1 -19 2 -3 14 23 17
35 16 28 -1z m76 4 c-8 -5 -19 -10 -25 -10 -5 0 -3 5 5 10 8 5 20 10 25 10 6
0 3 -5 -5 -10z m940 -21 c0 -5 -4 -9 -10 -9 -5 0 -10 7 -10 16 0 8 5 12 10 9
6 -3 10 -10 10 -16z m-1213 -5 c-3 -3 -12 -4 -19 -1 -8 3 -5 6 6 6 11 1 17 -2
13 -5z m113 -68 c0 -3 -4 -8 -10 -11 -5 -3 -10 -1 -10 4 0 6 5 11 10 11 6 0
10 -2 10 -4z m10 -33 c-8 -3 -24 -10 -35 -15 -20 -9 -20 -9 -1 6 11 9 27 16
35 15 14 0 14 -1 1 -6z m20 -22 c0 -14 -26 -20 -41 -9 -11 8 -11 9 3 4 10 -3
20 -1 23 4 8 12 15 13 15 1z m20 -15 c0 -2 -8 -10 -17 -17 -16 -13 -17 -12 -4
4 13 16 21 21 21 13z m1130 -21 c0 -8 -4 -15 -10 -15 -5 0 -10 7 -10 15 0 8 5
15 10 15 6 0 10 -7 10 -15z m10 -39 c0 -3 -4 -8 -10 -11 -5 -3 -10 -1 -10 4 0
6 5 11 10 11 6 0 10 -2 10 -4z m-1303 -12 c-3 -3 -12 -4 -19 -1 -8 3 -5 6 6 6
11 1 17 -2 13 -5z m1299 -41 c-10 -10 -19 5 -10 18 6 11 8 11 12 0 2 -7 1 -15
-2 -18z m-1316 13 c0 -2 -7 -7 -16 -10 -8 -3 -12 -2 -9 4 6 10 25 14 25 6z
m70 -26 c0 -5 -8 -10 -17 -10 -15 0 -16 2 -3 10 19 12 20 12 20 0z m37 -6 c-3
-3 -12 -4 -19 -1 -8 3 -5 6 6 6 11 1 17 -2 13 -5z m1246 -29 c4 -8 2 -17 -3
-20 -6 -4 -10 -4 -10 -1 0 2 -3 11 -6 20 -3 9 -2 16 4 16 5 0 12 -7 15 -15z
m-1376 -1 c-3 -3 -12 -4 -19 -1 -8 3 -5 6 6 6 11 1 17 -2 13 -5z m113 -9 c-14
-8 -36 -14 -49 -15 -31 0 -19 13 17 18 15 2 29 5 31 8 2 2 9 4 15 4 6 -1 0 -7
-14 -15z m-80 -4 c0 -5 -7 -11 -15 -15 -15 -5 -20 5 -8 17 9 10 23 9 23 -2z
m1357 -33 c-3 -8 -6 -5 -6 6 -1 11 2 17 5 13 3 -3 4 -12 1 -19z m-1293 2 c-12
-5 -43 -11 -70 -14 l-49 -6 50 14 c28 8 59 14 70 14 19 1 19 0 -1 -8z m-14
-33 c-14 -7 -32 -19 -40 -27 -13 -14 -14 -14 -5 0 14 23 37 40 54 39 10 0 6
-5 -9 -12z m1344 -32 c-4 -8 -10 -15 -15 -15 -5 0 -9 7 -9 15 0 8 7 15 15 15
9 0 12 -6 9 -15z m-1417 -31 c-3 -3 -12 -4 -19 -1 -8 3 -5 6 6 6 11 1 17 -2
13 -5z m1446 -18 c20 -16 22 -42 3 -49 -8 -3 -13 1 -12 11 1 10 -6 16 -16 16
-11 -1 -18 5 -18 17 0 22 17 24 43 5z m-1436 -12 c-3 -3 -12 -4 -19 -1 -8 3
-5 6 6 6 11 1 17 -2 13 -5z m17 -29 c-4 -8 -17 -15 -30 -15 -30 0 -31 8 -1 20
32 13 37 12 31 -5z m-74 -20 c-7 -8 -17 -12 -23 -8 -6 4 -3 9 9 14 27 11 28
11 14 -6z m1516 -11 c-3 -9 -6 -21 -7 -27 0 -7 -4 -3 -8 8 -9 22 -5 35 11 35
5 0 7 -7 4 -16z m-621 -8 c83 -35 103 -70 618 -1102 168 -336 313 -636 322
-667 9 -31 13 -67 9 -82 -6 -23 -10 -26 -33 -20 -46 11 -541 260 -668 335
-207 124 -282 197 -325 320 -19 52 -20 84 -18 613 0 307 4 566 7 575 16 45 33
50 88 28z m-2455 -26 c12 -45 22 -1107 11 -1128 -5 -10 -32 -27 -58 -37 -156
-57 -324 -130 -521 -226 -266 -129 -262 -127 -255 -97 3 13 53 127 110 253 58
127 138 302 178 390 40 88 130 286 200 440 141 312 161 350 211 401 31 30 41
35 77 32 34 -2 42 -7 47 -28z m1534 9 c-6 -11 -24 -2 -24 11 0 5 7 7 15 4 8
-4 12 -10 9 -15z m1566 -16 c0 -10 -5 -25 -10 -33 -7 -11 -10 -7 -10 18 0 17
5 32 10 32 6 0 10 -8 10 -17z m-1490 0 c-57 -18 -70 -21 -70 -13 0 9 29 17 65
18 13 0 15 -1 5 -5z m-80 -17 c0 -2 -7 -7 -16 -10 -8 -3 -12 -2 -9 4 6 10 25
14 25 6z m95 -26 c-3 -5 -12 -10 -18 -10 -7 0 -6 4 3 10 19 12 23 12 15 0z
m1495 -9 c0 -5 3 -16 6 -25 4 -10 1 -16 -9 -16 -17 0 -27 18 -19 38 5 14 22
16 22 3z m-1553 -34 c3 -4 -2 -7 -13 -7 -10 0 -29 -3 -42 -6 -16 -5 -21 -3
-17 7 5 14 59 18 72 6z m-117 -24 c0 -29 -12 -24 -17 7 -2 11 2 20 7 20 6 0
10 -12 10 -27z m1700 -2 c0 -5 -7 -14 -15 -21 -16 -14 -18 -10 -9 14 6 17 24
22 24 7z m-1566 -18 c-36 -15 -65 -16 -84 -2 -12 8 -9 10 12 6 15 -2 25 -1 23
3 -3 4 14 7 36 6 l41 -1 -28 -12z m-36 -37 c-25 -18 -10 -28 16 -11 11 8 24
15 29 15 11 0 3 -25 -9 -26 -5 0 -17 -4 -26 -7 -42 -16 -47 -16 -41 0 5 12 2
15 -10 10 -9 -3 -17 -2 -17 2 0 5 12 14 28 19 38 14 50 14 30 -2z m1609 -8
c-3 -8 -6 -5 -6 6 -1 11 2 17 5 13 3 -3 4 -12 1 -19z m-1707 -19 c0 -11 -4
-18 -10 -14 -5 3 -7 12 -3 20 7 21 13 19 13 -6z m112 -60 c-31 -19 -96 -33
-87 -20 3 5 23 12 45 16 22 4 42 11 45 16 4 5 0 7 -7 5 -36 -11 -78 -15 -73
-6 10 17 69 27 87 16 16 -9 15 -12 -10 -27z m-122 15 c0 -2 -7 -4 -15 -4 -8 0
-15 4 -15 10 0 5 7 7 15 4 8 -4 15 -8 15 -10z m1740 12 c0 -2 -7 -9 -15 -16
-13 -11 -14 -10 -9 4 5 14 24 23 24 12z m-1611 -52 c-10 -13 -10 -17 2 -25 11
-7 11 -9 0 -9 -7 0 -11 -6 -7 -15 5 -15 -50 -52 -61 -41 -4 3 9 12 28 20 32
14 32 15 9 16 -15 0 -30 -4 -35 -9 -6 -6 -19 -3 -34 8 -18 14 -21 20 -11 26 9
5 11 4 6 -3 -4 -7 -1 -12 8 -12 9 0 16 4 16 9 0 5 19 18 43 29 52 26 53 26 36
6z m1661 -48 c0 -2 -7 -9 -15 -16 -13 -11 -14 -10 -9 4 5 14 24 23 24 12z
m-1684 -61 c-16 -14 -34 -25 -40 -26 -6 0 -19 -2 -29 -4 -9 -2 -15 1 -11 6 3
5 14 9 25 9 10 0 19 3 19 8 0 7 37 29 55 31 6 0 -3 -10 -19 -24z m-117 12 c-2
-1 -13 -9 -24 -17 -19 -14 -19 -14 -6 3 7 9 18 17 24 17 6 0 8 -1 6 -3z m55
-5 c2 -4 -4 -8 -14 -8 -10 0 -16 4 -14 8 3 4 9 8 14 8 5 0 11 -4 14 -8z m74
-47 c-1 -1 -23 -6 -48 -9 l-45 -6 40 14 c22 9 42 21 44 28 3 8 6 6 9 -5 2 -10
2 -20 0 -22z m-8 -28 c0 -8 -6 -14 -12 -15 -7 0 -38 -3 -68 -6 l-55 -5 45 10
c25 6 49 15 55 20 14 13 35 11 35 -4z m-130 -1 c0 -3 -4 -8 -10 -11 -5 -3 -10
-1 -10 4 0 6 5 11 10 11 6 0 10 -2 10 -4z m120 -36 c-8 -5 -26 -9 -40 -9 -23
0 -23 1 -5 9 11 5 29 9 40 9 17 1 17 -1 5 -9z m-115 -10 c3 -6 -1 -7 -9 -4
-18 7 -21 14 -7 14 6 0 13 -4 16 -10z m82 -29 c16 -9 16 -10 1 -11 -9 0 -22
-2 -30 -3 -7 -2 -10 -2 -5 0 13 8 7 23 -7 17 -8 -3 -17 0 -21 6 -8 13 35 7 62
-9z m33 9 c0 -5 -2 -10 -4 -10 -3 0 -8 5 -11 10 -3 6 -1 10 4 10 6 0 11 -4 11
-10z m4 -30 c-6 -6 -34 -19 -62 -30 l-52 -20 0 25 c0 26 9 32 26 16 5 -5 23
-4 44 4 45 16 57 18 44 5z m-36 -48 c-31 -14 -36 -21 -31 -39 4 -17 1 -23 -11
-23 -9 0 -16 -5 -16 -11 0 -6 8 -8 18 -5 9 2 28 7 42 11 l25 6 -27 -25 c-16
-14 -28 -28 -28 -31 0 -3 12 -3 28 0 25 5 25 5 4 -4 -23 -11 -52 -5 -52 10 0
5 5 9 10 9 6 0 10 4 10 9 0 4 -11 7 -24 6 -17 -2 -23 2 -22 13 2 9 8 18 14 20
7 2 12 11 12 19 0 13 -3 13 -15 3 -8 -7 -15 -8 -15 -2 0 9 85 51 105 50 6 0
-7 -7 -27 -16z m-88 -16 c0 -3 -4 -8 -10 -11 -5 -3 -10 -1 -10 4 0 6 5 11 10
11 6 0 10 -2 10 -4z m100 -6 c0 -5 -5 -10 -11 -10 -5 0 -7 5 -4 10 3 6 8 10
11 10 2 0 4 -4 4 -10z m-140 -50 c0 -5 -2 -10 -4 -10 -3 0 -8 5 -11 10 -3 6
-1 10 4 10 6 0 11 -4 11 -10z m30 -20 c0 -5 -15 -9 -32 -9 l-33 1 30 8 c17 4
31 8 33 9 1 0 2 -3 2 -9z m1985 -10 c3 -5 1 -10 -4 -10 -6 0 -11 5 -11 10 0 6
2 10 4 10 3 0 8 -4 11 -10z m-1938 -27 c2 -6 -2 -13 -9 -16 -9 -3 -14 3 -14
14 0 20 17 21 23 2z m-52 -3 c-3 -5 -14 -10 -23 -10 -15 0 -15 2 -2 10 20 13
33 13 25 0z m70 -30 c3 -5 1 -10 -4 -10 -6 0 -11 5 -11 10 0 6 2 10 4 10 3 0
8 -4 11 -10z m50 -18 c-3 -3 -11 0 -18 7 -9 10 -8 11 6 5 10 -3 15 -9 12 -12z
m-120 -12 c-3 -5 -12 -10 -18 -10 -7 0 -6 4 3 10 19 12 23 12 15 0z m82 -20
c6 -17 7 -28 2 -24 -5 3 -9 0 -9 -5 0 -6 5 -11 11 -11 18 0 -19 -30 -38 -31
-16 0 -16 -1 2 -8 17 -7 17 -8 -8 -13 -30 -6 -29 -6 -21 16 3 9 14 16 23 16
21 0 32 10 25 21 -2 5 -16 4 -29 -1 -14 -5 -25 -7 -25 -4 0 3 14 10 30 15 17
6 30 15 30 20 0 12 -7 11 -31 -1 -13 -7 -19 -7 -19 0 0 5 6 10 14 10 8 0 18 4
21 10 4 6 -1 7 -11 3 -12 -4 -15 -3 -10 5 13 21 31 13 43 -18z m1943 14 c0 -8
-4 -12 -10 -9 -5 3 -10 10 -10 16 0 5 5 9 10 9 6 0 10 -7 10 -16z m-2050 -64
c0 -5 -2 -10 -4 -10 -3 0 -8 5 -11 10 -3 6 -1 10 4 10 6 0 11 -4 11 -10z
m2085 -10 c-3 -5 -11 -10 -16 -10 -6 0 -7 5 -4 10 3 6 11 10 16 10 6 0 7 -4 4
-10z m-1955 -20 c0 -5 -7 -10 -16 -10 -8 0 -12 5 -9 10 3 6 10 10 16 10 5 0 9
-4 9 -10z m-120 -10 c0 -5 -7 -7 -15 -4 -8 4 -15 8 -15 10 0 2 7 4 15 4 8 0
15 -4 15 -10z m90 -36 c0 -8 5 -12 10 -9 6 3 10 2 10 -4 0 -14 -18 -23 -22
-10 -2 7 -12 7 -31 0 -15 -6 -27 -7 -27 -2 0 5 12 12 28 16 l27 8 -25 7 -25 8
28 1 c18 1 27 -4 27 -15z m-80 2 c0 -2 -9 -6 -20 -9 -11 -3 -20 -1 -20 4 0 5
9 9 20 9 11 0 20 -2 20 -4z m-22 -33 c-10 -2 -26 -2 -35 0 -10 3 -2 5 17 5 19
0 27 -2 18 -5z m106 -28 c-10 -6 -14 -17 -11 -22 7 -11 -22 -28 -31 -18 -3 3
0 5 6 5 22 0 12 20 -10 21 -21 1 -21 2 -3 6 11 3 25 9 30 15 6 6 3 7 -10 3
-15 -5 -16 -4 -6 3 7 5 22 7 32 5 18 -5 18 -6 3 -18z m-94 -25 c0 -5 -7 -7
-15 -4 -8 4 -15 8 -15 10 0 2 7 4 15 4 8 0 15 -4 15 -10z m79 -30 c19 9 22 9
19 -1 -2 -7 -12 -13 -23 -15 -10 -1 -21 -7 -24 -12 -4 -6 -11 -4 -19 4 -7 8
-8 14 -3 14 6 0 8 8 4 18 -5 15 -4 15 9 -2 12 -16 18 -17 37 -6z m-93 -38
c-14 -15 -15 -13 -3 17 8 23 13 28 15 16 2 -10 -3 -25 -12 -33z m-9 32 c-3 -3
-12 -4 -19 -1 -8 3 -5 6 6 6 11 1 17 -2 13 -5z m116 -40 c-32 -14 -48 -32 -18
-20 8 3 15 1 15 -4 0 -11 -6 -12 -37 -4 -26 7 -31 24 -8 24 8 0 15 5 15 10 0
6 15 10 33 9 l32 -1 -32 -14z m-131 -98 c-6 -12 -22 15 -22 39 0 17 2 17 14
-5 7 -14 11 -29 8 -34z m108 44 c0 -5 -12 -10 -27 -9 l-28 1 25 8 c14 4 26 8
28 9 1 1 2 -3 2 -9z m-80 -4 c0 -3 -4 -8 -10 -11 -5 -3 -10 -1 -10 4 0 6 5 11
10 11 6 0 10 -2 10 -4z m110 -12 c0 -6 -65 -34 -77 -33 -4 0 10 9 32 19 48 22
45 21 45 14z m2107 -36 c-3 -8 -6 -5 -6 6 -1 11 2 17 5 13 3 -3 4 -12 1 -19z
m-2107 -4 c0 -8 -4 -12 -10 -9 -5 3 -10 -1 -10 -9 0 -11 -10 -15 -35 -14 -40
1 -38 14 5 23 16 4 32 11 35 16 9 14 15 11 15 -7z m-110 2 c0 -3 -4 -8 -10
-11 -5 -3 -10 -1 -10 4 0 6 5 11 10 11 6 0 10 -2 10 -4z m2245 -26 c3 -5 1
-10 -4 -10 -6 0 -11 5 -11 10 0 6 2 10 4 10 3 0 8 -4 11 -10z m-2245 -4 c0 -3
-4 -8 -10 -11 -5 -3 -10 -1 -10 4 0 6 5 11 10 11 6 0 10 -2 10 -4z m98 -23
c-10 -2 -18 -9 -18 -14 0 -6 4 -8 9 -4 5 3 13 1 16 -5 4 -6 1 -9 -7 -8 -7 2
-12 -4 -10 -14 3 -17 -44 -56 -55 -45 -3 4 6 12 21 18 34 16 33 33 -1 25 l-28
-6 24 14 c23 13 23 14 5 25 -16 10 -16 12 -1 7 9 -3 17 -1 17 4 0 6 10 9 23 9
16 -1 18 -2 5 -6z m-111 -39 c-3 -3 -12 -4 -19 -1 -8 3 -5 6 6 6 11 1 17 -2
13 -5z m3 -24 c0 -5 -4 -10 -10 -10 -5 0 -10 5 -10 10 0 6 5 10 10 10 6 0 10
-4 10 -10z m117 -12 c-3 -8 -6 -5 -6 6 -1 11 2 17 5 13 3 -3 4 -12 1 -19z
m-31 -23 c-15 -11 -16 -15 -5 -15 8 0 20 5 27 12 9 9 12 5 12 -17 0 -21 -3
-26 -9 -16 -5 8 -18 12 -30 8 -16 -4 -21 -1 -21 13 0 17 13 28 35 29 6 0 1 -6
-9 -14z m-94 -31 c-6 -11 -11 -13 -16 -5 -4 6 -2 11 3 11 6 0 11 8 12 18 0 9
3 12 5 5 3 -7 1 -20 -4 -29z m58 11 c0 -8 -2 -15 -4 -15 -2 0 -6 7 -10 15 -3
8 -1 15 4 15 6 0 10 -7 10 -15z m34 -30 c-18 -13 -18 -14 6 -9 22 5 23 4 7 -6
-30 -19 -74 -23 -74 -7 0 9 8 13 21 10 16 -4 18 -2 7 5 -11 8 -9 11 10 15 42
8 43 7 23 -8z m-94 -39 c0 -2 -9 -6 -20 -9 -11 -3 -20 -1 -20 4 0 5 9 9 20 9
11 0 20 -2 20 -4z m104 -6 c-5 -5 -27 -12 -48 -14 -45 -6 -42 3 6 14 48 11 53
11 42 0z m-99 -20 c-3 -5 -14 -10 -23 -9 -14 0 -13 2 3 9 27 11 27 11 20 0z
m115 -10 c0 -13 -7 -20 -19 -20 -11 0 -22 -4 -26 -9 -3 -6 -14 -9 -24 -8 -31
2 -12 33 27 44 20 6 38 11 40 12 1 0 2 -8 2 -19z m-10 -39 c0 -12 -66 -34 -82
-29 -7 3 7 12 32 20 25 9 46 16 48 17 1 0 2 -3 2 -8z m-133 -7 c-3 -3 -12 -4
-19 -1 -8 3 -5 6 6 6 11 1 17 -2 13 -5z m23 -23 c0 -5 -8 -15 -17 -22 -16 -13
-17 -12 -5 3 11 14 10 17 -5 21 -14 4 -13 5 5 6 12 0 22 -3 22 -8z m97 -14
c-15 -13 -24 -26 -21 -30 10 -10 26 -9 20 1 -3 5 1 9 9 9 11 0 12 -4 4 -13 -6
-7 -8 -18 -4 -25 5 -8 2 -8 -12 -1 -12 7 -24 7 -36 0 -10 -5 -23 -7 -30 -5 -7
3 0 8 16 12 28 7 35 19 17 30 -5 3 -10 0 -10 -7 0 -9 -3 -9 -10 2 -8 12 -2 19
28 32 51 24 62 22 29 -5z m-110 -63 c-3 -3 -12 -4 -19 -1 -8 3 -5 6 6 6 11 1
17 -2 13 -5z m93 -24 c0 -19 -27 -40 -52 -40 -7 0 -1 8 15 18 31 19 37 38 7
22 -12 -6 -20 -7 -20 -1 0 8 16 16 43 20 4 0 7 -8 7 -19z m-105 0 c13 -6 15
-9 5 -9 -8 0 -22 4 -30 9 -18 12 -2 12 25 0z m125 -25 c-19 -23 -29 -18 -17 9
7 15 16 21 21 16 6 -6 4 -15 -4 -25z m-113 -11 c-3 -3 -12 -4 -19 -1 -8 3 -5
6 6 6 11 1 17 -2 13 -5z m125 -16 c-7 -7 -16 -13 -20 -14 -26 -3 -62 -18 -62
-25 0 -6 8 -5 19 1 11 5 28 10 38 10 16 0 16 -1 -2 -14 -11 -7 -33 -16 -48
-20 -26 -6 -28 -5 -22 16 12 37 24 47 63 51 20 2 39 4 42 5 2 1 -2 -4 -8 -10z
m-9 -60 c-4 -7 -6 -25 -4 -40 1 -17 -2 -28 -9 -28 -7 0 -10 6 -7 14 7 17 -10
25 -35 18 -23 -6 -23 -22 -1 -22 15 0 14 -2 -3 -16 -18 -14 -17 -15 19 -12 47
5 48 -4 1 -18 -33 -11 -36 -10 -45 13 -12 33 3 59 49 82 20 10 38 19 40 20 2
1 0 -5 -5 -11z m-148 -48 c3 -6 -1 -7 -9 -4 -18 7 -21 14 -7 14 6 0 13 -4 16
-10z m2585 -16 c0 -14 -4 -23 -10 -19 -5 3 -10 15 -10 26 0 10 5 19 10 19 6 0
10 -12 10 -26z m-2460 -54 c0 -5 -3 -10 -7 -10 -5 0 -18 -3 -30 -6 -14 -4 -23
-2 -23 5 0 7 4 10 8 7 4 -2 14 -1 22 5 20 12 30 11 30 -1z m25 -20 c-3 -5 -14
-10 -23 -10 -15 0 -15 2 -2 10 20 13 33 13 25 0z m-39 -25 c19 -19 12 -30 -25
-43 -27 -10 -29 -9 -22 9 7 19 29 27 24 8 -2 -4 5 -5 14 -2 14 6 14 7 -2 19
-9 7 -24 10 -33 7 -15 -4 -15 -3 -2 6 20 14 29 14 46 -4z m2539 -34 c3 -5 1
-12 -5 -16 -5 -3 -10 1 -10 9 0 18 6 21 15 7z m-2524 -25 c-21 -22 -71 -41
-71 -27 0 14 25 31 46 31 13 0 26 5 29 10 3 6 9 10 12 10 4 0 -4 -11 -16 -24z
m19 -26 c0 -5 -7 -10 -15 -10 -9 0 -15 -9 -15 -24 0 -17 -7 -26 -25 -30 -24
-6 -36 -36 -15 -36 6 0 10 5 10 11 0 5 5 7 11 3 8 -4 7 -9 -2 -15 -7 -4 -10
-11 -6 -15 11 -12 38 17 28 30 -7 8 -4 16 10 24 10 7 19 8 19 3 0 -6 -4 -12
-9 -15 -5 -4 -8 -17 -7 -31 2 -13 0 -23 -4 -22 -4 1 -17 -9 -29 -23 -12 -15
-20 -19 -19 -10 2 8 -3 14 -11 12 -10 -2 -12 4 -7 23 6 24 5 26 -16 19 -21 -6
-21 -6 -4 11 10 10 15 26 13 37 -5 16 -1 18 24 14 16 -2 29 0 29 6 0 6 -6 8
-14 5 -8 -3 -17 -3 -20 0 -4 5 44 33 72 42 1 1 2 -3 2 -9z m2548 -62 c-2 -6
-10 -14 -16 -16 -7 -2 -10 2 -6 12 7 18 28 22 22 4z m-2678 -7 c0 -5 -11 -11
-25 -13 -28 -6 -35 8 -7 15 28 8 32 7 32 -2z m2730 -1 c0 -5 -4 -10 -10 -10
-5 0 -10 5 -10 10 0 6 5 10 10 10 6 0 10 -4 10 -10z m20 -45 c0 -19 -20 -29
-32 -17 -8 8 -7 16 2 26 14 17 30 12 30 -9z m-2763 8 c-9 -2 -14 -9 -10 -15 4
-8 0 -9 -11 -5 -10 4 -21 7 -24 8 -13 1 33 18 48 17 10 0 9 -2 -3 -5z m119
-81 c2 -8 0 -8 -3 -2 -3 8 -10 7 -22 -3 -16 -14 -51 -29 -51 -23 0 3 3 12 6
20 5 12 10 14 19 6 9 -8 14 -6 19 6 7 17 28 15 32 -4z m-126 -12 c0 -5 -5 -10
-11 -10 -5 0 -7 5 -4 10 3 6 8 10 11 10 2 0 4 -4 4 -10z m114 -35 c-6 -16 -42
-30 -51 -21 -4 3 1 6 9 6 9 0 21 7 28 15 16 19 21 19 14 0z m-114 -15 c0 -5
-7 -7 -15 -4 -8 4 -15 8 -15 10 0 2 7 4 15 4 8 0 15 -4 15 -10z m0 -30 c0 -5
-5 -10 -11 -10 -5 0 -7 5 -4 10 3 6 8 10 11 10 2 0 4 -4 4 -10z m85 -10 c-10
-11 -25 -20 -34 -20 -14 1 -13 2 2 11 9 6 15 14 12 20 -4 5 4 9 16 9 21 0 22
-1 4 -20z m6 -20 c-13 -11 -28 -20 -35 -20 -6 0 3 9 19 20 38 25 47 25 16 0z
m-99 -3 c-14 -6 -26 -7 -32 -1 -5 5 4 9 23 10 30 1 30 1 9 -9z m123 -13 c-16
-12 -17 -16 -6 -23 9 -6 5 -8 -14 -8 l-26 0 22 23 c12 13 27 24 33 24 6 0 2
-7 -9 -16z m-138 -20 c-3 -3 -12 -4 -19 -1 -8 3 -5 6 6 6 11 1 17 -2 13 -5z
m3 -30 c0 -2 -7 -4 -15 -4 -8 0 -15 4 -15 10 0 5 7 7 15 4 8 -4 15 -8 15 -10z
m98 -5 c-19 -11 -25 -39 -9 -39 16 0 22 18 9 23 -8 3 -5 6 6 6 13 1 16 -4 12
-16 -4 -9 -2 -20 5 -23 6 -4 -4 -7 -23 -6 -28 1 -34 5 -32 21 1 11 3 26 3 33
1 6 11 12 24 12 20 -1 20 -2 5 -11z m12 -76 c0 -13 -33 -43 -48 -43 -10 0 -7
7 9 21 18 16 20 19 6 15 -11 -3 -16 -2 -12 4 7 11 45 14 45 3z m-3 -47 c-24
-21 -34 -35 -25 -38 7 -3 3 -7 -9 -10 -32 -9 -24 11 20 49 51 44 63 43 14 -1z
m-107 0 c0 -2 -9 -6 -20 -9 -11 -3 -18 -1 -14 4 5 9 34 13 34 5z m150 0 c0 -2
-7 -7 -16 -10 -8 -3 -12 -2 -9 4 6 10 25 14 25 6z m2940 -6 c0 -5 -2 -10 -4
-10 -3 0 -8 5 -11 10 -3 6 -1 10 4 10 6 0 11 -4 11 -10z m-2955 -30 c-25 -28
-85 -62 -79 -45 3 7 18 19 34 25 16 7 35 18 41 26 6 8 14 14 17 14 3 0 -3 -9
-13 -20z m-128 4 c-3 -3 -12 -4 -19 -1 -8 3 -5 6 6 6 11 1 17 -2 13 -5z m153
-8 c0 -2 -8 -10 -17 -17 -16 -13 -17 -12 -4 4 13 16 21 21 21 13z m-140 -16
c0 -5 -12 -10 -27 -9 l-28 1 25 8 c14 4 26 8 28 9 1 1 2 -3 2 -9z m-5 -30 c-3
-5 -12 -10 -18 -10 -7 0 -6 4 3 10 19 12 23 12 15 0z m111 -3 c26 10 14 -4
-27 -31 -22 -15 -43 -25 -46 -23 -2 3 5 11 17 17 12 6 19 14 16 17 -3 4 0 13
6 21 7 8 14 10 16 4 2 -6 10 -8 18 -5z m7 -65 c-3 -7 -13 -11 -22 -10 -9 2
-24 -8 -34 -25 -10 -16 -21 -26 -25 -22 -4 4 -1 10 6 12 6 3 12 9 12 14 0 6
-4 7 -10 4 -5 -3 -10 -2 -10 4 0 13 44 37 69 37 12 0 17 -5 14 -14z m2657 3
c0 -2 -10 -9 -22 -15 -22 -11 -22 -10 -4 4 21 17 26 19 26 11z m-2810 -25 c0
-5 -5 -10 -11 -10 -5 0 -7 5 -4 10 3 6 8 10 11 10 2 0 4 -4 4 -10z m2710 -29
c0 -4 -28 -23 -62 -41 -110 -58 -152 -80 -185 -100 -18 -11 -35 -15 -38 -11
-3 5 7 14 23 20 15 5 79 39 142 75 132 74 120 68 120 57z m-2600 -15 c0 -3 -4
-8 -10 -11 -5 -3 -10 -1 -10 4 0 6 5 11 10 11 6 0 10 -2 10 -4z m2775 -36 c-3
-5 -16 -15 -28 -21 -21 -10 -21 -9 2 10 25 23 36 27 26 11z m-2775 -40 c0 -5
-5 -10 -11 -10 -5 0 -7 5 -4 10 3 6 8 10 11 10 2 0 4 -4 4 -10z m2720 7 c0 -2
-13 -13 -30 -25 -16 -13 -30 -19 -30 -15 0 5 12 16 28 25 28 18 32 20 32 15z
m-2693 -49 c-3 -8 -6 -5 -6 6 -1 11 2 17 5 13 3 -3 4 -12 1 -19z m2373 -33 c0
-2 -10 -9 -22 -15 -22 -11 -22 -10 -4 4 21 17 26 19 26 11z m-255 -25 c-3 -5
-12 -10 -18 -10 -7 0 -6 4 3 10 19 12 23 12 15 0z m274 7 c-2 -1 -13 -9 -24
-17 -19 -14 -19 -14 -6 3 7 9 18 17 24 17 6 0 8 -1 6 -3z m-2396 -49 c-5 -24
-3 -29 7 -23 8 5 11 3 8 -5 -2 -8 -9 -15 -15 -17 -13 -5 -24 45 -11 53 5 3 7
13 4 21 -3 8 -1 11 4 8 5 -3 7 -20 3 -37z m2327 38 c0 -3 -4 -8 -10 -11 -5 -3
-10 -1 -10 4 0 6 5 11 10 11 6 0 10 -2 10 -4z m-245 -16 c-3 -5 -12 -10 -18
-10 -7 0 -6 4 3 10 19 12 23 12 15 0z m63 -20 c-27 -17 -56 -30 -65 -30 -9 0
7 13 37 29 72 38 87 38 28 1z m-98 5 c0 -6 -56 -35 -67 -35 -4 1 8 9 27 20 39
22 40 22 40 15z m-2070 -57 c0 -19 -2 -20 -10 -8 -13 19 -13 30 0 30 6 0 10
-10 10 -22z m1990 17 c0 -2 -13 -11 -30 -20 -38 -19 -40 -11 -2 9 31 17 32 18
32 11z m-2023 -27 c-3 -8 -6 -5 -6 6 -1 11 2 17 5 13 3 -3 4 -12 1 -19z m111
-7 c-1 -16 -6 -27 -11 -24 -4 3 -18 -3 -30 -13 -13 -11 -11 -7 6 12 15 16 27
35 27 42 0 7 2 12 5 12 3 0 4 -13 3 -29z m1976 14 c-7 -16 -24 -21 -24 -6 0 8
7 13 27 20 1 1 0 -6 -3 -14z m-2119 -25 c3 -5 1 -10 -4 -10 -6 0 -11 5 -11 10
0 6 2 10 4 10 3 0 8 -4 11 -10z m1755 5 c0 -2 -10 -9 -22 -15 -22 -11 -22 -10
-4 4 21 17 26 19 26 11z m230 1 c0 -2 -7 -7 -16 -10 -8 -3 -12 -2 -9 4 6 10
25 14 25 6z m-1920 -29 c0 -2 -10 -12 -22 -23 l-23 -19 19 23 c18 21 26 27 26
19z m1639 -1 c-10 -9 -69 -36 -69 -32 0 7 52 35 64 36 5 0 7 -2 5 -4z m341 -1
c0 -2 -10 -9 -22 -15 -22 -11 -22 -10 -4 4 21 17 26 19 26 11z m-1895 -15 c-3
-5 -15 -10 -26 -10 -11 0 -17 5 -14 10 3 6 15 10 26 10 11 0 17 -4 14 -10z
m2085 5 c0 -2 -13 -11 -30 -20 -38 -19 -40 -11 -2 9 31 17 32 18 32 11z
m-2110 -30 c5 3 12 0 16 -7 4 -7 4 -10 0 -6 -11 9 -48 -30 -41 -43 4 -5 22 4
43 21 20 16 38 27 41 24 7 -7 -60 -63 -75 -64 -7 0 -14 7 -18 15 -5 14 -9 14
-42 0 -21 -8 -39 -13 -41 -11 -2 2 10 10 27 17 21 9 33 23 37 41 5 23 8 26 24
17 11 -5 24 -7 29 -4z m1400 -55 c-30 -16 -59 -29 -65 -29 -5 0 15 13 45 29
30 16 60 29 65 29 6 0 -15 -13 -45 -29z m-1346 -20 c-12 -20 -21 -26 -25 -18
-5 7 0 20 9 30 27 27 35 21 16 -12z m1550 5 c-10 -8 -23 -15 -28 -15 -6 0 -1
7 10 15 10 8 23 15 28 15 6 0 1 -7 -10 -15z m-1667 -20 c-31 -28 -47 -32 -47
-12 0 10 34 27 70 35 3 1 -8 -10 -23 -23z m-57 -20 c0 -8 -2 -15 -4 -15 -2 0
-6 7 -10 15 -3 8 -1 15 4 15 6 0 10 -7 10 -15z m83 -8 c3 -8 -3 -14 -15 -14
-16 -2 -17 1 -8 13 15 17 17 17 23 1z m1757 8 c0 -2 -10 -9 -22 -15 -22 -11
-22 -10 -4 4 21 17 26 19 26 11z m-130 -15 c-8 -5 -19 -10 -25 -10 -5 0 -3 5
5 10 8 5 20 10 25 10 6 0 3 -5 -5 -10z m-370 -10 c-8 -5 -19 -10 -25 -10 -5 0
-3 5 5 10 8 5 20 10 25 10 6 0 3 -5 -5 -10z m-1300 -4 c0 -2 -7 -7 -16 -10 -8
-3 -12 -2 -9 4 6 10 25 14 25 6z m1516 -11 c-11 -8 -24 -15 -30 -15 -5 0 -1 7
10 15 10 8 24 14 29 14 6 0 1 -6 -9 -14z m-256 1 c0 -6 -181 -98 -185 -94 -4
4 165 96 178 97 4 1 7 -1 7 -3z m-1140 -21 c-7 -8 -17 -15 -22 -15 -11 0 14
29 26 30 5 0 3 -7 -4 -15z m70 1 c0 -3 -4 -8 -10 -11 -5 -3 -10 -1 -10 4 0 6
5 11 10 11 6 0 10 -2 10 -4z m1270 -1 c0 -2 -10 -9 -22 -15 -22 -11 -22 -10
-4 4 21 17 26 19 26 11z m-1230 -9 c0 -2 -8 -10 -17 -17 -16 -13 -17 -12 -4 4
13 16 21 21 21 13z m1325 -6 c3 -5 1 -10 -4 -10 -6 0 -11 5 -11 10 0 6 2 10 4
10 3 0 8 -4 11 -10z m-1431 -15 c-4 -8 -11 -15 -16 -15 -6 0 -5 6 2 15 7 8 14
15 16 15 2 0 1 -7 -2 -15z m1626 5 c-8 -5 -19 -10 -25 -10 -5 0 -3 5 5 10 8 5
20 10 25 10 6 0 3 -5 -5 -10z m110 -10 c0 -5 -5 -10 -11 -10 -5 0 -7 5 -4 10
3 6 8 10 11 10 2 0 4 -4 4 -10z m-940 -4 c0 -2 -7 -7 -16 -10 -8 -3 -12 -2 -9
4 6 10 25 14 25 6z m-720 -16 c0 -5 -2 -10 -4 -10 -3 0 -8 5 -11 10 -3 6 -1
10 4 10 6 0 11 -4 11 -10z m1176 1 c-3 -5 -16 -11 -28 -14 -22 -6 -22 -5 -4 8
22 17 40 20 32 6z m64 -11 c-13 -11 -25 -20 -28 -20 -3 0 3 9 13 20 10 11 23
20 28 20 6 0 0 -9 -13 -20z m390 15 c0 -2 -13 -11 -30 -20 -38 -19 -40 -11 -2
9 31 17 32 18 32 11z m-299 -28 c-10 -9 -11 -8 -5 6 3 10 9 15 12 12 3 -3 0
-11 -7 -18z m44 13 c-3 -5 -11 -10 -16 -10 -6 0 -7 5 -4 10 3 6 11 10 16 10 6
0 7 -4 4 -10z m-1397 -22 c-7 -7 -22 -20 -33 -28 -19 -14 -19 -14 -5 5 17 23
32 35 43 35 5 0 2 -6 -5 -12z m877 2 c-3 -5 -12 -10 -18 -10 -7 0 -6 4 3 10
19 12 23 12 15 0z m150 0 c-3 -5 -12 -10 -18 -10 -7 0 -6 4 3 10 19 12 23 12
15 0z m-1001 -54 c-61 -56 -84 -61 -26 -6 22 22 46 40 52 40 5 0 10 5 10 12 0
6 3 8 6 5 4 -3 -15 -27 -42 -51z m106 50 c0 -2 -8 -10 -17 -17 -16 -13 -17
-12 -4 4 13 16 21 21 21 13z m1080 -11 c0 -6 -56 -35 -67 -35 -4 1 8 9 27 20
39 22 40 22 40 15z m64 -7 c-5 -8 -1 -9 12 -4 14 5 16 4 7 -5 -13 -13 -37 -3
-28 12 4 5 8 9 11 9 3 0 2 -5 -2 -12z m-1344 -8 c-8 -5 -19 -10 -25 -10 -5 0
-3 5 5 10 8 5 20 10 25 10 6 0 3 -5 -5 -10z m160 -25 c-7 -8 -17 -15 -22 -15
-6 0 -5 7 2 15 7 8 17 15 22 15 6 0 5 -7 -2 -15z m690 11 c0 -2 -7 -7 -16 -10
-8 -3 -12 -2 -9 4 6 10 25 14 25 6z m585 -6 c-3 -5 -10 -10 -16 -10 -5 0 -9 5
-9 10 0 6 7 10 16 10 8 0 12 -4 9 -10z m-400 -20 c-3 -5 -12 -10 -18 -10 -7 0
-6 4 3 10 19 12 23 12 15 0z m205 5 c0 -2 -10 -9 -22 -15 -22 -11 -22 -10 -4
4 21 17 26 19 26 11z m70 1 c0 -2 -7 -7 -16 -10 -8 -3 -12 -2 -9 4 6 10 25 14
25 6z m40 -1 c0 -2 -10 -9 -22 -15 -22 -11 -22 -10 -4 4 21 17 26 19 26 11z
m145 -15 c-3 -5 -12 -10 -18 -10 -7 0 -6 4 3 10 19 12 23 12 15 0z m-730 -10
c-3 -5 -12 -10 -18 -10 -7 0 -6 4 3 10 19 12 23 12 15 0z m235 6 c0 -3 -4 -8
-10 -11 -5 -3 -10 -1 -10 4 0 6 5 11 10 11 6 0 10 -2 10 -4z m154 -31 c-4 -8
-10 -15 -14 -15 -5 0 -17 -3 -27 -6 -10 -3 -4 3 12 14 37 25 36 25 29 7z m61
5 c-3 -5 -12 -10 -18 -10 -7 0 -6 4 3 10 19 12 23 12 15 0z m-25 -40 c0 -5 -5
-10 -11 -10 -5 0 -7 5 -4 10 3 6 8 10 11 10 2 0 4 -4 4 -10z m-60 -5 c0 -2
-13 -11 -30 -20 -38 -19 -40 -11 -2 9 31 17 32 18 32 11z m-110 -40 c-14 -8
-29 -14 -35 -14 -5 0 1 6 15 14 14 8 30 14 35 14 6 0 -1 -6 -15 -14z m-30 -55
c-8 -5 -19 -10 -25 -10 -5 0 -3 5 5 10 8 5 20 10 25 10 6 0 3 -5 -5 -10z m-95
-10 c-3 -5 -12 -10 -18 -10 -7 0 -6 4 3 10 19 12 23 12 15 0z m21 -25 c-11 -8
-25 -15 -30 -15 -6 1 0 7 14 15 32 19 40 18 16 0z"/>
<path d="M5200 2454 c0 -8 5 -12 10 -9 6 3 10 10 10 16 0 5 -4 9 -10 9 -5 0
-10 -7 -10 -16z"/>
<path d="M6412 8130 c0 -14 2 -19 5 -12 2 6 2 18 0 25 -3 6 -5 1 -5 -13z"/>
<path d="M6412 7780 c0 -14 2 -19 5 -12 2 6 2 18 0 25 -3 6 -5 1 -5 -13z"/>
<path d="M6405 7390 c-3 -5 -1 -10 4 -10 6 0 11 5 11 10 0 6 -2 10 -4 10 -3 0
-8 -4 -11 -10z"/>
<path d="M6412 7300 c0 -14 2 -19 5 -12 2 6 2 18 0 25 -3 6 -5 1 -5 -13z"/>
<path d="M6412 6980 c0 -14 2 -19 5 -12 2 6 2 18 0 25 -3 6 -5 1 -5 -13z"/>
<path d="M6472 6701 c-11 -7 -11 -9 1 -14 16 -6 29 -67 15 -67 -5 0 -6 -5 -3
-10 5 -8 11 -7 21 1 7 6 10 16 6 23 -4 6 -11 26 -17 43 -7 24 -14 30 -23 24z"/>
</g>
</svg>
