<svg width="242" height="48" viewBox="0 0 242 48" fill="none" xmlns="http://www.w3.org/2000/svg">
<g clip-path="url(#clip0_1999_694)">
<mask id="mask0_1999_694" style="mask-type:luminance" maskUnits="userSpaceOnUse" x="0" y="0" width="241" height="48">
<path d="M240.68 0H0.679688V48H240.68V0Z" fill="white"/>
</mask>
<g mask="url(#mask0_1999_694)">
<path d="M98.5277 47.9969H89.7445C89.439 47.9969 89.1456 47.8776 88.93 47.6654C88.7144 47.4531 88.5933 47.1652 88.5933 46.8651V13.0239C88.5925 12.8249 88.6451 12.6292 88.7456 12.4565C88.8462 12.2838 88.9917 12.1403 89.1662 12.0404C89.3415 11.9406 89.5403 11.8879 89.743 11.8876C89.9456 11.8875 90.1445 11.9397 90.3197 12.0393L99.103 17.0306C99.279 17.1303 99.4245 17.2739 99.5258 17.4468C99.6272 17.6197 99.6797 17.8158 99.679 18.0153V46.8651C99.679 47.1652 99.5578 47.4531 99.3415 47.6654C99.1258 47.8776 98.8333 47.9969 98.5277 47.9969Z" fill="#373737"/>
<path d="M93.5357 5.65967e-05H102.32C102.624 5.65967e-05 102.918 0.1193 103.133 0.331555C103.349 0.54381 103.471 0.831688 103.471 1.13186V34.973C103.472 35.1736 103.421 35.3713 103.319 35.5456C103.218 35.7199 103.071 35.8645 102.894 35.9648C102.717 36.065 102.516 36.1171 102.312 36.1159C102.108 36.1146 101.908 36.06 101.732 35.9576L92.9491 30.9777C92.7731 30.8779 92.6275 30.7343 92.5262 30.5614C92.4249 30.3885 92.3723 30.1924 92.3731 29.993V1.13186C92.3731 0.982278 92.4035 0.834171 92.4622 0.696112C92.5201 0.558052 92.6062 0.432774 92.7144 0.327527C92.8226 0.222279 92.9506 0.139148 93.0915 0.0829394C93.2325 0.0267312 93.3833 -0.00143928 93.5357 5.65967e-05Z" fill="#F58634"/>
<path d="M99.0947 17.0329L92.3831 13.2188V29.9922C92.3823 30.1916 92.4356 30.3877 92.5362 30.5606C92.6375 30.7335 92.7831 30.8771 92.9591 30.9768L99.6821 34.791V18.0176C99.6814 17.8171 99.6273 17.6202 99.5236 17.4472C99.4208 17.2742 99.2722 17.1312 99.0947 17.0329Z" fill="#B93A38"/>
<path d="M9.8894 47.9999C8.67836 48.0189 7.47639 47.7914 6.35905 47.3317C5.24171 46.8721 4.23314 46.1902 3.39671 45.3289C2.52988 44.5068 1.84206 43.52 1.37503 42.4285C0.907999 41.337 0.671503 40.1636 0.679904 38.9794V13.0158C0.679904 12.7156 0.801189 12.4277 1.01708 12.2154C1.23297 12.0032 1.52578 11.884 1.8311 11.884H9.23325C9.53855 11.884 9.83135 12.0032 10.0473 12.2154C10.2631 12.4277 10.3844 12.7156 10.3844 13.0158V37.3496C10.3844 37.6498 10.5057 37.9377 10.7216 38.15C10.9375 38.3622 11.2303 38.4815 11.5357 38.4815H27.0882C27.3935 38.4815 27.6863 38.3622 27.9022 38.15C28.118 37.9377 28.2393 37.6498 28.2393 37.3496V13.0497C28.2393 12.7495 28.3606 12.4616 28.5766 12.2494C28.7924 12.0371 29.0852 11.9179 29.3906 11.9179H36.7582C36.9094 11.9179 37.0591 11.9471 37.1987 12.004C37.3384 12.061 37.4653 12.1443 37.5721 12.2494C37.6791 12.3545 37.7638 12.4792 37.8217 12.6165C37.8796 12.7539 37.9094 12.901 37.9094 13.0497V38.9794C37.9207 40.1619 37.6879 41.3344 37.2249 42.4258C36.7618 43.5172 36.0783 44.5048 35.2156 45.3289C34.3792 46.1902 33.3705 46.8721 32.2532 47.3317C31.1359 47.7914 29.9339 48.0189 28.7229 47.9999H9.8894Z" fill="#373737"/>
<path d="M53.8075 48.0015C52.598 48.0216 51.3974 47.7945 50.2818 47.3348C49.1662 46.875 48.1598 46.1925 47.3264 45.3304C46.4637 44.5063 45.7802 43.5187 45.3171 42.4273C44.8541 41.3359 44.6212 40.1635 44.6326 38.981V26.316C44.6326 26.0158 44.7539 25.728 44.9697 25.5157C45.1857 25.3034 45.4785 25.1842 45.7838 25.1842H72.1345V22.5471C72.1345 22.2469 72.0132 21.959 71.7973 21.7468C71.5814 21.5345 71.2886 21.4153 70.9833 21.4153H45.7723C45.467 21.4153 45.1742 21.296 44.9582 21.0838C44.7423 20.8715 44.6211 20.5836 44.6211 20.2835V13.0172C44.6211 12.7171 44.7423 12.4292 44.9582 12.2169C45.1742 12.0047 45.467 11.8854 45.7723 11.8854H72.6871C75.1296 11.8854 77.4717 12.8394 79.1989 14.5375C80.9262 16.2355 81.8968 18.5385 81.8968 20.9399V46.8809C81.8968 47.1811 81.7757 47.4691 81.5593 47.6812C81.3437 47.8935 81.0504 48.0127 80.7456 48.0127L53.8075 48.0015ZM71.0754 38.4829C71.3807 38.4829 71.6735 38.3637 71.8894 38.1514C72.1053 37.9392 72.2266 37.6513 72.2266 37.3511V33.5369H55.5113C55.206 33.5369 54.9132 33.6562 54.6973 33.8684C54.4814 34.0807 54.3601 34.3686 54.3601 34.6688V37.3511C54.3601 37.6513 54.4814 37.9392 54.6973 38.1514C54.9132 38.3637 55.206 38.4829 55.5113 38.4829H71.0754Z" fill="#373737"/>
<path d="M119.435 48C116.999 47.9823 114.666 47.0226 112.944 45.3284C111.22 43.6341 110.244 41.3414 110.226 38.9455V1.13181C110.226 0.831634 110.347 0.543753 110.564 0.331498C110.779 0.119243 111.072 0 111.377 0H118.768C119.073 0 119.366 0.119243 119.582 0.331498C119.798 0.543753 119.919 0.831634 119.919 1.13181V11.8613H132.375C132.68 11.8613 132.973 11.9806 133.189 12.1928C133.405 12.4051 133.526 12.693 133.526 12.9931V20.282C133.526 20.5822 133.405 20.8701 133.189 21.0823C132.973 21.2946 132.68 21.4138 132.375 21.4138H119.908V37.3497C119.908 37.6498 120.029 37.9378 120.245 38.15C120.461 38.3622 120.753 38.4815 121.059 38.4815H132.375C132.68 38.4815 132.973 38.6008 133.189 38.813C133.405 39.0252 133.526 39.3131 133.526 39.6133V46.8795C133.526 47.1797 133.405 47.4676 133.189 47.6798C132.973 47.892 132.68 48.0113 132.375 48.0113L119.435 48Z" fill="#373737"/>
<path d="M147.798 48C145.36 47.9822 143.028 47.0225 141.306 45.3284C139.582 43.6341 138.606 41.3414 138.588 38.9455V1.13181C138.588 0.831634 138.709 0.543753 138.925 0.331498C139.141 0.119243 139.434 0 139.739 0H147.21C147.516 0 147.808 0.119243 148.024 0.331498C148.24 0.543753 148.362 0.831634 148.362 1.13181V37.3497C148.362 37.6498 148.483 37.9377 148.698 38.15C148.915 38.3622 149.207 38.4815 149.513 38.4815H154.659C154.964 38.4815 155.257 38.6008 155.472 38.813C155.688 39.0252 155.81 39.3131 155.81 39.6133V46.9134C155.81 47.2136 155.688 47.5015 155.472 47.7137C155.257 47.926 154.964 48.0453 154.659 48.0453L147.798 48Z" fill="#373737"/>
<path d="M168.674 47.996C167.463 48.015 166.261 47.7875 165.144 47.3279C164.026 46.8682 163.018 46.1863 162.182 45.325C161.329 44.4962 160.656 43.5064 160.203 42.4152C159.751 41.324 159.527 40.154 159.546 38.9755V26.2767C159.546 25.9765 159.667 25.6886 159.882 25.4763C160.099 25.2641 160.391 25.1448 160.697 25.1448H187.093V22.5304C187.093 22.2302 186.972 21.9423 186.756 21.7301C186.541 21.5178 186.247 21.3986 185.942 21.3986H160.616C160.311 21.3986 160.018 21.2793 159.802 21.0671C159.586 20.8548 159.465 20.5669 159.465 20.2667V13.0232C159.465 12.723 159.586 12.4351 159.802 12.2229C160.018 12.0106 160.311 11.8914 160.616 11.8914H187.531C189.973 11.8914 192.316 12.8453 194.043 14.5434C195.77 16.2414 196.74 18.5445 196.74 20.9458V46.9775C196.74 47.2776 196.619 47.5655 196.404 47.7778C196.187 47.99 195.895 48.1093 195.589 48.1093L168.674 47.996ZM185.942 38.4776C186.247 38.4776 186.541 38.3583 186.756 38.1461C186.972 37.9338 187.093 37.6459 187.093 37.3458V33.4976H170.332C170.026 33.4976 169.734 33.6168 169.518 33.8291C169.302 34.0414 169.181 34.3292 169.181 34.6294V37.3458C169.181 37.6459 169.302 37.9338 169.518 38.1461C169.734 38.3583 170.026 38.4776 170.332 38.4776H185.942Z" fill="#373737"/>
<path d="M203.442 46.8795V1.13181C203.442 0.831634 203.563 0.543753 203.779 0.331498C203.995 0.119243 204.288 0 204.593 0H212.007C212.312 0 212.605 0.119243 212.82 0.331498C213.037 0.543753 213.158 0.831634 213.158 1.13181V11.8387H231.496C233.939 11.8387 236.282 12.7927 238.008 14.4907C239.735 16.1887 240.706 18.4918 240.706 20.8932V39.0021C240.717 40.1846 240.484 41.3571 240.021 42.4485C239.559 43.5399 238.874 44.5275 238.012 45.3515C237.175 46.2129 236.167 46.8948 235.05 47.3544C233.933 47.8141 232.73 48.0416 231.519 48.0226H204.593C204.441 48.0226 204.29 47.993 204.15 47.9354C204.01 47.8779 203.882 47.7934 203.775 47.6872C203.667 47.5809 203.583 47.4547 203.526 47.3161C203.469 47.1775 203.44 47.0291 203.442 46.8795ZM229.919 38.4815C230.224 38.4815 230.517 38.3623 230.733 38.15C230.949 37.9378 231.07 37.6498 231.07 37.3497V22.557C231.07 22.2568 230.949 21.9689 230.733 21.7566C230.517 21.5444 230.224 21.4251 229.919 21.4251H213.135V37.3497C213.135 37.6498 213.256 37.9378 213.472 38.15C213.688 38.3623 213.981 38.4815 214.286 38.4815H229.919Z" fill="#373737"/>
</g>
</g>
<defs>
<clipPath id="clip0_1999_694">
<rect width="240.762" height="48" fill="white" transform="translate(0.333496)"/>
</clipPath>
</defs>
</svg>
