<svg width="201" height="40" viewBox="0 0 201 40" fill="none" xmlns="http://www.w3.org/2000/svg">
<path d="M160.999 19.378V0.621105C160.999 0.453428 161.065 0.302317 161.173 0.190533L171.245 10.2366C171.095 10.3877 171 10.5968 171 10.8265V19.378C171 19.7216 170.721 19.999 170.38 19.999H161.619C161.276 19.999 160.999 19.7216 160.999 19.378Z" fill="#FFD719"/>
<path d="M161.173 0.190279C161.284 0.0722857 161.444 -0.000169754 161.619 -0.000169754H180.378C180.719 -0.000169754 180.998 0.27722 180.998 0.620851V9.37725C180.998 9.72088 180.719 9.99827 180.378 9.99827H171.826C171.599 9.99827 171.394 10.0894 171.245 10.2363L161.173 0.190279Z" fill="#0F5EBB"/>
<path d="M201 0.828028V39.1719C201 39.6294 200.63 40 200.174 40H161.828C161.371 40 161.001 39.6294 161.001 39.1719V30.8275C161.001 30.37 161.371 29.9995 161.828 29.9995H190.316C190.773 29.9995 191.142 29.6289 191.142 29.1714V0.828028C191.142 0.370542 191.512 0 191.969 0H200.174C200.63 0 201 0.370542 201 0.828028Z" fill="white"/>
<path d="M99.998 20.8271V39.172C99.998 39.6295 99.6283 40 99.1718 40H90.7539C90.2974 40 89.9276 39.6295 89.9276 39.172V30.8276C89.9276 30.3701 89.5578 29.9995 89.1013 29.9995H78.5041C77.7687 29.9995 77.3989 29.1073 77.9195 28.5857L82.9165 23.5782L86.2485 20.2412C86.4034 20.086 86.6142 19.999 86.8331 19.999H99.1718C99.6283 19.999 99.998 20.3696 99.998 20.8271Z" fill="white"/>
<path d="M153.263 40H141.554C141.335 40 141.125 39.913 140.97 39.7557L120.312 18.9598C119.996 18.641 119.99 18.1255 120.302 17.8026L122.182 15.8422L137.751 0.242198C137.906 0.0869426 138.117 0 138.336 0H149.976C150.712 0 151.082 0.8922 150.561 1.41386L134.244 17.7674C133.922 18.0903 133.922 18.6141 134.244 18.9391L153.85 38.5861C154.37 39.1078 154.003 40 153.265 40H153.263Z" fill="white"/>
<path d="M116.731 0H108.383C107.927 0 107.557 0.370721 107.557 0.828028V39.1719C107.557 39.6292 107.927 40 108.383 40H116.731C117.187 40 117.557 39.6292 117.557 39.1719V0.828028C117.557 0.370721 117.187 0 116.731 0Z" fill="white"/>
<path d="M99.9983 0.621021V9.37741C99.9983 9.72105 99.7215 9.99843 99.3786 9.99843H82.9973C82.8321 9.99843 82.6751 10.0647 82.5594 10.1806L78.4837 14.2648L76.9075 15.8422L76.4179 16.3329L72.7595 19.9989L64.3003 28.4759L62.78 29.9995L52.9822 39.8178C52.8665 39.9337 52.7074 40 52.5442 40H40.6559C39.9205 40 39.5508 39.1078 40.0713 38.5861L48.64 29.9995L54.3538 24.2736L58.6196 19.9989L68.5991 9.99843L76.4179 2.16322L76.4882 2.09284L78.3948 0.182164C78.5105 0.0662401 78.6696 0 78.8328 0H99.3786C99.7215 0 99.9983 0.277389 99.9983 0.621021Z" fill="white"/>
<path d="M62.3088 0C63.0442 0 63.4139 0.890128 62.8934 1.41179L54.5354 9.81627C54.4197 9.93219 54.2607 9.99843 54.0975 9.99843H31.048C30.5915 9.99843 30.2217 10.369 30.2217 10.8265V39.1719C30.2217 39.6294 29.8519 40 29.3954 40H20.7297C20.2731 40 19.9034 39.6294 19.9034 39.1719V10.8265C19.9034 10.369 19.5336 9.99843 19.0771 9.99843H0.826294C0.369767 9.99843 0 9.62789 0 9.17041V0.828028C0 0.370542 0.369767 0 0.826294 0H62.3088Z" fill="white"/>
</svg>
